<svg xmlns="http://www.w3.org/2000/svg" viewBox="0 0 71000 50000">
  <style>
    .str0 { stroke: currentColor; stroke-width: 236.221 }
    .fil1 { fill: none }
    .fil0 { fill: currentColor }
  </style>
  <g>
    <path class="fil0" d="M71000 10863l0 39119 -70999 0 0 -39142c1795,1346 32168,23609 32168,23609 0,0 2984,2058 6257,281 3274,-1777 32574,-23867 32574,-23867zm0 39119l-70999 0 70999 0z"/>
    <path class="fil1 str0" d="M71000 10863l0 39119 -70999 0 0 -39142c1795,1346 32168,23609 32168,23609 0,0 2984,2058 6257,281 3274,-1777 32574,-23867 32574,-23867zm0 39119l-70999 0"/>
    <path class="fil0" d="M1 18l70999 0 -70999 0zm70999 3295c0,1661 -1526,2925 -1526,2925 0,0 -29411,22264 -31962,23433 -2551,1169 -4236,-187 -4236,-187 0,0 -30667,-22230 -32012,-23510 -1346,-1279 -1263,-2579 -1263,-2529l0 -3427 70999 0 0 3295z"/>
    <path class="fil1 str0" d="M1 18l70999 0m0 3295c0,1661 -1526,2925 -1526,2925 0,0 -29411,22264 -31962,23433 -2551,1169 -4236,-187 -4236,-187 0,0 -30667,-22230 -32012,-23510 -1346,-1279 -1263,-2579 -1263,-2529l0 -3427 70999 0 0 3295z"/>
  </g>
</svg>
