<svg xmlns="http://www.w3.org/2000/svg" viewBox="0 0 51200 51200">
  <style>
    .str0 { stroke: currentColor; stroke-width: 236.221 }
    .fil0 { fill: currentColor }
    .fil1 { fill: none }
  </style>
  <g>
    <path class="fil0" d="M-43045 72953l141998 0 -141998 0zm141998 -84181l0 84181 -141998 0 0 -84229c3589,2749 64336,48217 64336,48217 0,0 5969,4203 12515,574 6546,-3630 65147,-48743 65147,-48743z"/>
    <path class="fil1 str0" d="M-43045 72953l141998 0m0 -84181l0 84181 -141998 0 0 -84229c3589,2749 64336,48217 64336,48217 0,0 5969,4203 12515,574 6546,-3630 65147,-48743 65147,-48743z"/>
    <path class="fil0" d="M-43045 -29566l141998 0 -141998 0zm141998 6731c0,3391 -3053,5974 -3053,5974 0,0 -58821,45468 -63923,47856 -5103,2388 -8472,-382 -8472,-382 0,0 -61333,-45400 -64024,-48013 -2691,-2613 -2526,-5268 -2526,-5166l0 -7000 141998 0 0 6731z"/>
    <path class="fil1 str0" d="M-43045 -29566l141998 0m0 6731c0,3391 -3053,5974 -3053,5974 0,0 -58821,45468 -63923,47856 -5103,2388 -8472,-382 -8472,-382 0,0 -61333,-45400 -64024,-48013 -2691,-2613 -2526,-5268 -2526,-5166l0 -7000 141998 0 0 6731z"/>
  </g>
</svg>
