<svg xmlns="http://www.w3.org/2000/svg" xml:space="preserve" width="7080" height="10241" fill-rule="evenodd" clip-rule="evenodd" image-rendering="optimizeQuality" shape-rendering="geometricPrecision" text-rendering="geometricPrecision" viewBox="0 0 7080 10241"><defs><style>.fil0{fill:#fff;fill-rule:nonzero}</style></defs><g><path id="digit-2" d="M4712 2144c-4 4-5 8-3 11 2 4 5 6 11 6h771c10 0 18 3 24 10 7 7 10 15 10 24v276c0 10-3 18-10 24-6 7-14 10-24 10H4211c-10 0-18-3-24-10-7-6-10-14-10-24v-262c0-17 5-31 17-42 93-91 188-190 284-298 97-107 158-174 182-200 53-63 108-122 163-179 172-192 258-334 258-427 0-66-23-121-71-164-47-42-109-64-185-64-75 0-137 22-185 64-47 43-71 100-71 170v71c0 9-3 17-10 24-6 7-14 10-24 10h-335c-10 0-18-3-25-10-6-7-10-15-10-24v-134c6-102 38-193 97-272 59-78 137-138 235-180 97-42 207-63 328-63 135 0 252 25 352 76 99 50 176 118 230 203q81 127.5 81 285c0 79-20 161-60 244-39 84-99 174-179 270-59 74-122 147-190 219-69 72-170 177-305 313z" class="fil0"/></g></svg>