<svg xmlns="http://www.w3.org/2000/svg" xml:space="preserve" width="7080" height="10241" fill-rule="evenodd" clip-rule="evenodd" image-rendering="optimizeQuality" shape-rendering="geometricPrecision" text-rendering="geometricPrecision" viewBox="0 0 7080 10241"><defs><style>.fil0{fill:#fff;fill-rule:nonzero}</style></defs><g><path id="digit-1" d="M2856 523c10-6 24-9 43-9h344c10 0 18 3 24 10 7 7 10 15 10 24v1923c0 10-3 18-10 24-6 7-14 10-24 10h-333c-9 0-17-3-24-10-6-6-10-14-10-24V912c0-4-2-7-5-11q-6-6-12-3l-281 77-12 3c-17 0-25-11-25-32l-9-244c0-19 9-32 26-40z" class="fil0"/></g></svg>