<svg xmlns="http://www.w3.org/2000/svg" xml:space="preserve" width="7080" height="10241" fill-rule="evenodd" clip-rule="evenodd" image-rendering="optimizeQuality" shape-rendering="geometricPrecision" text-rendering="geometricPrecision" viewBox="0 0 7080 10241"><defs><style>.fil0{fill:#fff;fill-rule:nonzero}</style></defs><g><path id="digit-5" d="M5693 3998c29 93 43 183 43 270 0 97-15 184-46 262-43 121-120 218-230 289s-239 106-387 106c-144 0-271-34-380-103-109-70-186-164-231-284-19-49-34-101-43-156v-6c0-21 11-31 34-31h344c19 0 32 10 37 31 2 12 5 21 9 29 4 7 6 14 8 20 19 49 48 87 86 113 38 27 82 40 133 40 53 0 100-14 140-42 40-29 69-69 88-120 19-38 28-87 28-148 0-55-8-104-25-148-14-49-40-87-80-113-40-27-86-40-139-40s-103 12-148 37c-46 24-76 57-91 96-6 19-18 29-37 29h-350c-10 0-18-3-24-10-7-7-10-15-10-24V2948c0-9 3-17 10-24 6-7 14-10 24-10h1175c9 0 17 3 24 10s10 15 10 24v276c0 10-3 18-10 24-7 7-15 10-24 10h-794c-9 0-14 5-14 15l-3 421c0 13 6 16 17 8 85-55 184-82 296-82 133 0 249 33 348 101 100 67 171 159 212 277" class="fil0"/></g></svg>