<svg xmlns="http://www.w3.org/2000/svg" xml:space="preserve" width="7080" height="10241" fill-rule="evenodd" clip-rule="evenodd" image-rendering="optimizeQuality" shape-rendering="geometricPrecision" text-rendering="geometricPrecision" viewBox="0 0 7080 10241"><defs><style>.fil0{fill:#fff;fill-rule:nonzero}</style></defs><g><path id="digit-0" d="M1245 2537c-209 0-374-59-495-175-121-117-182-276-182-477v-751c0-197 61-354 182-469q181.5-174 495-174c209 0 374 58 496 174 123 115 184 272 184 469v751c0 201-61 360-184 477-122 116-287 175-496 175m0-345c85 0 153-26 203-78 51-52 76-122 76-209v-782c0-87-25-157-76-209-50-52-118-79-203-79-83 0-150 27-201 79-50 52-75 122-75 209v782c0 87 25 157 75 209q76.5 78 201 78" class="fil0"/></g></svg>