<svg xmlns="http://www.w3.org/2000/svg" xml:space="preserve" width="7080" height="10241" fill-rule="evenodd" clip-rule="evenodd" image-rendering="optimizeQuality" shape-rendering="geometricPrecision" text-rendering="geometricPrecision" viewBox="0 0 7080 10241"><defs><style>.fil0{fill:#fff;fill-rule:nonzero}</style></defs><g><path id="digit-6" d="M1625 6333c46 85 68 195 68 327 0 110-18 209-54 296-49 112-126 200-230 265-104 64-228 96-370 96-146 0-272-33-378-101-106-67-183-160-231-280q-51-124.5-51-279v-856c0-102 27-193 81-271 54-79 130-140 226-183 97-42 208-64 333-64 123 0 232 22 327 64 95 43 169 103 221 180 52 76 78 165 78 266v79c0 10-3 18-10 24-7 7-15 10-24 10h-333c-9 0-18-3-24-10-7-6-10-14-10-24v-25c0-63-21-115-63-157-41-41-95-62-162-62-70 0-127 21-172 64-45 42-67 97-67 163v268c0 5 2 9 6 10s7-1 11-5c78-66 181-99 310-99q171 0 306 78c90 52 161 128 212 226m-375 512c28-49 42-109 42-179 0-76-15-138-45-188-48-76-117-114-208-114q-153 0-213 117c-29 49-43 113-43 191 0 68 12 126 37 173 42 84 114 125 216 125 99 0 170-41 214-125" class="fil0"/></g></svg>