<svg xmlns="http://www.w3.org/2000/svg" xml:space="preserve" width="7080" height="10241" fill-rule="evenodd" clip-rule="evenodd" image-rendering="optimizeQuality" shape-rendering="geometricPrecision" text-rendering="geometricPrecision" viewBox="0 0 7080 10241"><defs><style>.fil0{fill:#fff;fill-rule:nonzero}</style></defs><g><path id="digit-3" d="M1951 3955c38 88 57 188 57 302 0 102-17 197-51 284-46 122-122 217-229 285s-234 102-380 102c-144 0-271-36-380-108s-187-170-234-293c-27-74-42-154-46-239 0-23 12-34 34-34h336c23 0 34 11 34 34 8 63 18 109 31 140 17 49 45 87 84 115 39 27 85 41 138 41 107 0 180-46 219-139 27-57 40-124 40-200 0-89-14-162-43-219-43-89-116-133-219-133-20 0-42 6-65 18-23 13-50 30-82 53-8 6-16 8-23 8-12 0-20-5-26-17l-168-236c-3-5-5-12-5-20 0-11 3-21 11-28l452-396c4-3 6-7 5-11s-5-6-10-6H762c-9 0-17-3-24-10-7-6-10-14-10-24v-276c0-9 3-17 10-24s15-10 24-10h1186c10 0 18 3 25 10 6 7 10 15 10 24v313c0 15-7 30-20 43l-373 341c-4 4-5 8-4 12 1 3 5 5 12 5 165 33 283 130 353 293" class="fil0"/></g></svg>