<svg xmlns="http://www.w3.org/2000/svg" xml:space="preserve" width="7080" height="10241" fill-rule="evenodd" clip-rule="evenodd" image-rendering="optimizeQuality" shape-rendering="geometricPrecision" text-rendering="geometricPrecision" viewBox="0 0 7080 10241"><defs><style>.fil0{fill:#fff;fill-rule:nonzero}</style></defs><g><path id="digit-9" d="M6253 5667q48 117 48 279v856c0 103-26 193-79 272s-128 140-225 182c-97 43-208 64-333 64-123 0-232-21-327-64-95-42-169-102-222-179s-80-165-80-266v-80c0-9 4-17 10-24 7-6 15-10 25-10h332c10 0 18 4 25 10 6 7 10 15 10 24v26c0 63 21 115 64 156 42 42 97 63 163 63 70 0 127-21 171-64 43-43 65-97 65-164v-264c0-6-2-10-6-11-3-2-7-1-11 2-78 67-180 100-307 100q-171 0-306-78c-90-52-161-128-212-226-47-90-71-199-71-328 0-111 19-210 57-295 47-112 124-201 229-265s229-97 371-97c144 0 270 34 377 101 107 68 185 161 232 280m-609 572c99 0 170-39 214-116 28-50 42-113 42-191 0-63-12-120-37-173q-63-126-216-126-148.5 0-216 126c-29 53-43 112-43 179 0 72 16 134 49 187q70.5 114 207 114" class="fil0"/></g></svg>