<svg xmlns="http://www.w3.org/2000/svg" xml:space="preserve" width="7080" height="10241" fill-rule="evenodd" clip-rule="evenodd" image-rendering="optimizeQuality" shape-rendering="geometricPrecision" text-rendering="geometricPrecision" viewBox="0 0 7080 10241"><defs><style>.fil0{fill:#fff;fill-rule:nonzero}</style></defs><g><path id="digit-4" d="M3747 4038c9 0 17 3 24 10 7 6 10 14 10 24v287c0 10-3 18-10 24-7 7-15 10-24 10h-122q-15 0-15 15v463c0 10-3 18-10 24-6 7-14 10-24 10h-333c-9 0-17-3-24-10-6-6-10-14-10-24v-463c0-10-5-15-14-15h-873c-10 0-18-3-24-10-7-6-10-14-10-24v-227c0-12 2-26 8-43l512-1149c8-17 21-26 40-26h356c13 0 22 3 27 10 4 7 4 17-2 30l-475 1067c-2 4-2 7 0 11q3 6 9 6h432c9 0 14-5 14-14v-353c0-10 4-18 10-24 7-7 15-10 24-10h333c10 0 18 3 24 10 7 6 10 14 10 24v353c0 9 5 14 15 14z" class="fil0"/></g></svg>