<svg xmlns="http://www.w3.org/2000/svg" xml:space="preserve" width="7080" height="10241" fill-rule="evenodd" clip-rule="evenodd" image-rendering="optimizeQuality" shape-rendering="geometricPrecision" text-rendering="geometricPrecision" viewBox="0 0 7080 10241"><defs><style>.fil0{fill:#fff;fill-rule:nonzero}</style></defs><g><path id="digit-7" d="M2060 7297c-29 0-38-13-29-39l617-1591c4-11 0-17-11-17h-532c-9 0-14 5-14 15v130c0 10-3 18-10 25-7 6-15 10-24 10h-259c-10 0-18-4-24-10-7-7-10-15-10-25l3-455c0-9 3-17 10-24 6-6 14-10 24-10h1243c9 0 17 4 24 10 7 7 10 15 10 24v288q0 16.5-9 42l-614 1602c-6 17-19 25-40 25z" class="fil0"/></g></svg>