<svg xmlns="http://www.w3.org/2000/svg" xml:space="preserve" width="7080" height="10241" fill-rule="evenodd" clip-rule="evenodd" image-rendering="optimizeQuality" shape-rendering="geometricPrecision" text-rendering="geometricPrecision" viewBox="0 0 7080 10241"><defs><style>.fil0{fill:#fff;fill-rule:nonzero}</style></defs><g><path id="digit-8" d="M4517 6421c43 88 65 185 65 293 0 114-24 212-71 293-49 97-125 173-226 229q-153 84-363 84c-133 0-252-27-358-81s-186-132-239-235c-46-89-69-186-69-293 0-104 22-202 66-293 32-66 80-120 142-162 8-5 8-12 0-20-45-34-84-79-116-136-44-76-66-161-66-256q0-202.5 114-342c55-73 128-131 220-172 92-40 194-61 306-61 116 0 218 21 307 63s162 98 217 170c75 99 113 213 113 342 0 98-24 187-74 264-32 50-71 91-116 126-8 7-8 14 0 19 62 40 112 96 148 168m-808-682c-19 38-29 77-29 119 0 55 13 104 37 148 44 68 111 102 202 102s161-34 208-102c25-42 37-92 37-151 0-41-10-81-29-119-18-38-47-68-85-90s-82-33-134-33q-67.5 0-123 33t-84 93m415 1137c36-51 54-117 54-199 0-70-13-129-40-176q-61.5-120-219-120-147 0-210 117c-29 48-43 109-43 185 0 74 16 136 48 185 44 72 113 108 208 108 91 0 158-33 202-100" class="fil0"/></g></svg>