<svg xmlns="http://www.w3.org/2000/svg" xml:space="preserve" width="354" height="512" fill-rule="evenodd" clip-rule="evenodd" image-rendering="optimizeQuality" shape-rendering="geometricPrecision" text-rendering="geometricPrecision" viewBox="0 0 3540 5120"><defs><linearGradient id="id0" x1="-112.524" x2="3794.13" y1="-171.937" y2="5479.41" gradientUnits="userSpaceOnUse"><stop offset="0" stop-color="#525252"/><stop offset="1" stop-color="#e6e6e6"/></linearGradient><linearGradient id="id1" x1="2036.76" x2="1561.39" y1="-209.873" y2="3618.39" gradientUnits="userSpaceOnUse"><stop offset="0" stop-color="#ababab"/><stop offset="1" stop-color="#fefefe"/></linearGradient><style>.fil3{fill:#fff}</style></defs><g id="Слой_x0020_1"><path fill="url(#id0)" d="M162 32h98c0 80 65 145 146 145 80 0 146-65 146-145h97c0 80 66 145 146 145 81 0 146-65 146-145h98c0 80 65 145 146 145 80 0 146-65 146-145h97c0 80 65 145 146 145s146-65 146-145h98c0 80 65 145 145 145 81 0 146-65 146-145h98c0 80 65 145 146 145 80 0 146-65 146-145h97c0 80 66 145 146 145 81 0 146-65 146-145h98c0 80 65 145 146 145 80 0 146-65 146-145h97c0 80 66 145 146 145h3v96c-81 0-146 65-146 146 0 80 65 145 146 145v98c-81 0-146 65-146 146 0 80 65 146 146 146v97c-81 0-146 66-146 146 0 81 65 146 146 146v98c-81 0-146 65-146 146 0 80 65 146 146 146v97c-81 0-146 66-146 146 0 81 65 146 146 146v98c-81 0-146 65-146 146 0 80 65 145 146 145v98c-81 0-146 65-146 146 0 80 65 146 146 146v97c-81 0-146 66-146 146 0 81 65 146 146 146v98c-81 0-146 65-146 146 0 80 65 146 146 146v97c-81 0-146 66-146 146 0 81 65 146 146 146v98c-81 0-146 65-146 145 0 81 65 146 146 146v98c-81 0-146 65-146 146 0 80 65 146 146 146v95h-3c-81 0-146 65-146 146h-97c0-81-66-146-146-146-81 0-146 65-146 146h-98c0-81-65-146-146-146-80 0-146 65-146 146h-97c0-81-66-146-146-146-81 0-146 65-146 146h-98c0-81-65-146-146-146-80 0-145 65-145 146h-98c0-81-65-146-146-146s-146 65-146 146h-98c0-81-65-146-145-146-81 0-146 65-146 146h-98c0-81-65-146-146-146-80 0-146 65-146 146h-97c0-81-66-146-146-146-81 0-146 65-146 146h-98c0-81-65-146-146-146v-97c81 0 146-66 146-146 0-81-65-146-146-146v-97c81 0 146-66 146-146 0-81-65-146-146-146v-97c81 0 146-66 146-146 0-81-65-146-146-146v-97c81 0 146-66 146-146 0-81-65-146-146-146v-97c81 0 146-66 146-146 0-81-65-146-146-146v-97c81 0 146-66 146-146 0-81-65-146-146-146v-97c81 0 146-66 146-146 0-81-65-146-146-146v-97c81 0 146-66 146-146 0-81-65-146-146-146v-97c81 0 146-66 146-146 0-81-65-146-146-146v-97c81 0 146-66 146-146 0-81-65-146-146-146v-98c81 0 146-65 146-145 0-81-65-146-146-146v-98c81 0 146-65 146-145 0-81-65-146-146-146v-98c81 0 146-65 146-145"/><path fill="#fff" fill-rule="nonzero" d="M748 3665c4-3 12-5 21-5h167c5 0 8 2 11 5q4.5 6 3 12l-118 965c-1 4-3 8-7 12-3 3-7 5-12 5H652c-10 0-16-6-16-17l97-782c0-2-1-4-2-6-2-2-4-2-6-1l-141 38-6 2c-9 0-12-5-10-16l10-123c2-8 7-15 16-20z"/><path fill="url(#id1)" d="m837 1669-701 2c67-95 0-229-120-229v-97c69 0 127-48 142-113l733 1L1039 37c6 188 292 184 292-5h97c0 40 17 77 43 103l-136 1099h439l132-1068c95 41 203-29 203-134h98c0 79 63 143 142 145l-395 3192h-445l211-1696-440-1-209 1697H626zm2055-646c360 5 394 283 375 446-18 162-165 461-538 427-356-32-347-451-263-616s205-233 426-257"/><g id="_1990728434688"><path d="m2283 4100-293 2 17-142 293 1 38-301h142l-37 301h141l38-301h142l-92 747h-143l38-305h-142l-37 305h-143zm105 307h-143zm284 0h-143zM2776 4659h141l54-431-142-1zM2944 3891c117 2 128 92 122 145s-54 151-175 140c-116-11-113-147-86-201 28-54 67-76 139-84" class="fil3"/></g></g></svg>