<svg xmlns="http://www.w3.org/2000/svg" xml:space="preserve" width="708" height="1024" fill-rule="evenodd" clip-rule="evenodd" image-rendering="optimizeQuality" shape-rendering="geometricPrecision" text-rendering="geometricPrecision" viewBox="0 0 7080 10241"><defs><linearGradient id="id0" x1=".642" x2="7080.65" y1="64.496" y2="10178.7" gradientUnits="userSpaceOnUse"><stop offset="0" stop-color="#1863ad"/><stop offset="1" stop-color="#10cfcf"/></linearGradient><linearGradient id="id1" x1="4016.6" x2="3943.68" y1="-598.447" y2="7956.34" gradientUnits="userSpaceOnUse"><stop offset="0" stop-color="#f60"/><stop offset="1" stop-color="#ff0"/></linearGradient><style>.fil2{fill:#fff}</style></defs><g id="Слой_x0020_1"><path fill="url(#id0)" d="M325 63h195c0 161 131 292 292 292s291-131 291-292h196c0 161 130 292 292 292 161 0 291-131 291-292h196c0 161 130 292 291 292s292-131 292-292h195c0 161 131 292 292 292s292-131 292-292h195c0 161 131 292 292 292s292-131 292-292h195c0 161 131 292 292 292s291-131 291-292h196c0 161 130 292 291 292 162 0 292-131 292-292h196c0 161 130 292 291 292s292-131 292-292h195c0 161 131 292 292 292h5v190c-161 0-292 131-292 292s131 292 292 292v195c-161 0-292 131-292 292s131 292 292 292v195c-161 0-292 130-292 292 0 161 131 291 292 291v196c-161 0-292 130-292 291 0 162 131 292 292 292v195c-161 0-292 131-292 292s131 292 292 292v195c-161 0-292 131-292 292s131 292 292 292v195c-161 0-292 131-292 292s131 292 292 292v195c-161 0-292 130-292 292 0 161 131 291 292 291v196c-161 0-292 130-292 291 0 162 131 292 292 292v195c-161 0-292 131-292 292s131 292 292 292v195c-161 0-292 131-292 292s131 292 292 292v195c-161 0-292 131-292 292s131 292 292 292v190h-5c-161 0-292 130-292 292h-195c0-162-131-292-292-292s-292 130-292 292h-195c0-162-130-292-292-292-161 0-291 130-291 292h-196c0-162-130-292-291-292-162 0-292 130-292 292h-195c0-162-131-292-292-292s-292 130-292 292h-195c0-162-131-292-292-292s-292 130-292 292h-195c0-162-131-292-292-292s-292 130-292 292h-195c0-162-130-292-292-292-161 0-291 130-291 292h-196c0-162-130-292-291-292s-292 130-292 292H325c0-162-131-292-292-292v-195c161 0 292-130 292-292 0-161-131-291-292-291v-195c161 0 292-130 292-292 0-161-131-291-292-291v-195c161 0 292-130 292-292 0-161-131-291-292-291v-195c161 0 292-130 292-292 0-161-131-291-292-291v-195c161 0 292-130 292-292 0-161-131-291-292-291v-195c161 0 292-130 292-292 0-161-131-291-292-291v-195c161 0 292-131 292-292s-131-291-292-291v-195c161 0 292-131 292-292s-131-291-292-291v-195c161 0 292-131 292-292s-131-291-292-291v-195c161 0 292-131 292-292s-131-291-292-291v-195c161 0 292-131 292-292s-131-292-292-292v-194c161 0 292-131 292-292S194 549 33 549V355c161 0 292-131 292-292"/><path fill="url(#id1)" d="m1675 3337-1403 6c133-191-1-459-239-459v-195c138 0 253-96 284-224l1465 2L2078 73c12 377 583 368 583-10h195c0 81 33 154 86 207l-271 2197h877l263-2136c190 82 408-56 408-268h195c0 159 126 288 283 292l-789 6383h-890l422-3393-881-1-417 3394h-889zm4108-1291c720 11 789 567 752 892s-331 923-1078 855c-711-65-693-902-525-1233 168-330 410-467 851-514"/><g id="_2147135265808"><path d="m4756 8201-587 2 34-283 588 1 74-601h284l-74 601h283l75-601h284l-184 1495h-286l76-611-283-1-75 612h-286zm209 614h-286zm568 0h-286zM5742 9318h281l109-863h-285zM6077 7782c235 4 257 185 245 291s-108 300-351 278c-232-21-226-294-171-401 55-108 133-152 277-168" class="fil2"/></g><path id="anchor" fill="none" d="M754 7277h2842v2048H754z"/></g></svg>