<svg xmlns="http://www.w3.org/2000/svg" xml:space="preserve" width="2192" height="3171" fill-rule="evenodd" clip-rule="evenodd" image-rendering="optimizeQuality" shape-rendering="geometricPrecision" text-rendering="geometricPrecision" viewBox="0 0 21920 31706"><defs><linearGradient id="id0" x1="1.988" x2="21922" y1="199.684" y2="31513.8" gradientUnits="userSpaceOnUse"><stop offset="0" stop-color="#1863ad"/><stop offset="1" stop-color="#f39"/></linearGradient><linearGradient id="id1" x1="12435.6" x2="12209.8" y1="-1852.82" y2="24633.2" gradientUnits="userSpaceOnUse"><stop offset="0" stop-color="#f60"/><stop offset="1" stop-color="#ff0"/></linearGradient><style>.fil3{fill:#fc0}.fil4{fill:#fff}.fil2{fill:#f63;fill-rule:nonzero}</style></defs><g id="Слой_x0020_1"><path fill="url(#id0)" d="M1005 196h605c0 499 404 903 903 903s903-404 903-903h605c0 499 404 903 903 903s904-404 904-903h604c0 499 405 903 904 903 498 0 903-404 903-903h604c0 499 405 903 904 903s903-404 903-903h605c0 499 404 903 903 903s903-404 903-903h605c0 499 404 903 903 903s903-404 903-903h605c0 499 404 903 903 903s903-404 903-903h605c0 499 405 903 904 903 498 0 903-404 903-903h604c0 499 405 903 904 903h15v589c-499 0-903 405-903 904 0 498 404 903 903 903v604c-499 0-903 405-903 904s404 903 903 903v605c-499 0-903 404-903 903s404 903 903 903v605c-499 0-903 404-903 903s404 903 903 903v605c-499 0-903 404-903 903s404 904 903 904v604c-499 0-903 405-903 903 0 499 404 904 903 904v604c-499 0-903 405-903 904 0 498 404 903 903 903v604c-499 0-903 405-903 904s404 903 903 903v605c-499 0-903 404-903 903s404 903 903 903v605c-499 0-903 404-903 903s404 903 903 903v605c-499 0-903 404-903 903s404 904 903 904v604c-499 0-903 405-903 903 0 499 404 904 903 904v589h-16c-498 0-903 404-903 903h-604c0-499-405-903-904-903s-903 404-903 903h-605c0-499-404-903-903-903s-903 404-903 903h-605c0-499-404-903-903-903s-903 404-903 903h-605c0-499-404-903-903-903s-904 404-904 903h-604c0-499-405-903-904-903-498 0-903 404-903 903h-604c0-499-405-903-904-903s-903 404-903 903h-605c0-499-404-903-903-903s-903 404-903 903h-605c0-499-404-903-903-903s-903 404-903 903h-605c0-499-404-903-903-903v-602c499 0 903-405 903-904s-404-903-903-903v-602c499 0 903-405 903-904 0-498-404-903-903-903v-602c499 0 903-405 903-903 0-499-404-904-903-904v-602c499 0 903-404 903-903s-404-903-903-903v-603c499 0 903-404 903-903s-404-903-903-903v-602c499 0 903-405 903-904s-404-903-903-903v-602c499 0 903-405 903-904 0-498-404-903-903-903v-602c499 0 903-404 903-903s-404-904-903-904v-602c499 0 903-404 903-903s-404-903-903-903v-603c499 0 903-404 903-903s-404-903-903-903v-602c499 0 903-405 903-904s-404-903-903-903v-602c499 0 903-405 903-904 0-498-404-903-903-903v-602c499 0 903-404 903-903"/><path fill="url(#id1)" d="m5185 10332-4343 17c413-589-3-1421-740-1421v-603c427 0 785-296 879-694l4535 6 917-7410c39 1166 1806 1139 1806-31h604c0 250 102 477 267 640l-842 6802 2717 1 815-6614c589 255 1261-175 1261-829h605c0 490 391 889 878 903l-2446 19763H9345l1305-10505-2727-4-1291 10509H3879zm12720-3997c2229 32 2441 1753 2327 2760s-1025 2858-3336 2647c-2202-201-2147-2793-1627-3816 521-1023 1269-1445 2636-1591"/><path d="M2903 13691q97.5-66 183-66h1479c41 0 76 26 104 76 29 51 43 113 43 185v14680c0 72-14 134-43 184-28 51-63 76-104 76H3135c-41 0-75-25-104-76-28-50-43-112-43-184V16709q0-43.5-18-87c-12-29-26-36-43-22l-1087 370-49 21c-74 0-110-79-110-239l-37-1867c0-145 37-246 110-304z" class="fil2"/><path id="1" d="M8391 29065c-807 0-1451-423-1931-1270-481-847-721-1987-721-3420v-6298c0-1419 240-2552 721-3398 480-847 1124-1271 1931-1271s1452 424 1937 1271c485 846 727 1979 727 3398v6298c0 1433-242 2573-727 3420s-1130 1270-1937 1270m0-2627c285 0 513-170 684-511 171-340 257-799 257-1379v-6623c0-579-86-1035-257-1368s-399-499-684-499-511 166-678 499c-168 333-251 789-251 1368v6623c0 580 83 1039 251 1379 167 341 393 511 678 511" class="fil2"/><path id="2" d="M14637 29065c-807 0-1451-423-1932-1270-480-847-721-1987-721-3420v-6298c0-1419 241-2552 721-3398 481-847 1125-1271 1932-1271 806 0 1452 424 1937 1271 485 846 727 1979 727 3398v6298c0 1433-242 2573-727 3420s-1131 1270-1937 1270m0-2627c285 0 513-170 684-511 171-340 257-799 257-1379v-6623c0-579-86-1035-257-1368s-399-499-684-499c-286 0-512 166-679 499s-250 789-250 1368v6623c0 580 83 1039 250 1379 167 341 393 511 679 511" class="fil2"/><g id="_1875467096112"><path d="m14724 25391-1817 7 107-876 1818 2 232-1860h879l-231 1860 877 1 232-1861h879l-570 4627h-885l236-1892-877-2-232 1894h-885zm648 1900h-885zm1758 0h-885zM17776 28848h871l339-2670-884-2zM18815 24094c726 10 795 571 758 899s-334 931-1086 862c-718-65-700-909-530-1243 169-333 413-471 858-518" class="fil3"/></g></g><g id="Слой_x0020_1_0"><g id="_2147135265808"/></g></svg>