<svg xmlns="http://www.w3.org/2000/svg" xml:space="preserve" width="512" height="512" fill-rule="evenodd" clip-rule="evenodd" image-rendering="optimizeQuality" shape-rendering="geometricPrecision" text-rendering="geometricPrecision" viewBox="0 0 5120 5120"><defs><linearGradient id="id0" x1="1207.8" x2="3912.2" y1="398.021" y2="4721.98" gradientUnits="userSpaceOnUse"><stop offset="0" stop-color="#8c8c8c"/><stop offset=".639" stop-color="#b8baba"/><stop offset="1" stop-color="#e5e8e8"/></linearGradient><linearGradient id="id1" x1="1954.67" x2="2572.47" y1="19.689" y2="3500.3" gradientUnits="userSpaceOnUse"><stop offset="0" stop-color="#828282"/><stop offset="1" stop-color="#4a4a4a"/></linearGradient><style>.fil4{fill:#000}.fil1{fill:#fff}</style></defs><g id="Слой_x0020_1"><g id="_1990721214960"/><path fill="url(#id0)" d="M2510 10c0 81-66 147-147 147s-147-66-147-147h-98c0 81-66 147-147 147s-147-66-147-147h-98c0 81-66 147-147 147s-147-66-147-147h-99c0 81-65 147-146 147-82 0-147-66-147-147h-99c0 81-65 147-147 147-81 0-147-66-147-147h-98c0 81-66 147-147 147S255 91 255 10h-98c0 81-66 147-147 147v98c81 0 147 66 147 147 0 82-66 147-147 147v98c81 0 147 66 147 148 0 81-66 147-147 147v98c81 0 147 66 147 147s-66 147-147 147v98c81 0 147 66 147 147s-66 147-147 147v98c81 0 147 66 147 148 0 81-66 147-147 147v98c81 0 147 66 147 147s-66 147-147 147v98c81 0 147 66 147 147s-66 147-147 147v98c81 0 147 66 147 147 0 82-66 148-147 148v98c81 0 147 66 147 147s-66 147-147 147v98c81 0 147 66 147 147s-66 147-147 147v98c81 0 147 66 147 147 0 82-66 148-147 148v98c81 0 147 65 147 147 0 81-66 147-147 147v98c81 0 147 66 147 147h98c0-81 66-147 147-147s147 66 147 147h98c0-81 66-147 147-147s147 66 147 147h99c0-81 65-147 146-147 82 0 147 66 147 147h99c0-81 66-147 147-147s147 66 147 147h98c0-81 66-147 147-147s147 66 147 147h98c0-81 66-147 147-147s147 66 147 147h100c0-81 66-147 147-147s147 66 147 147h98c0-81 66-147 147-147s147 66 147 147h98c0-81 66-147 147-147s147 66 147 147h99c0-81 65-147 147-147 81 0 146 66 146 147h99c0-81 66-147 147-147s147 66 147 147h98c0-81 66-147 147-147s147 66 147 147h98c0-81 66-147 147-147v-98c-81 0-147-66-147-147 0-82 66-147 147-147v-98c-81 0-147-66-147-148 0-81 66-147 147-147v-98c-81 0-147-66-147-147s66-147 147-147v-98c-81 0-147-66-147-147s66-147 147-147v-98c-81 0-147-66-147-148 0-81 66-147 147-147v-98c-81 0-147-66-147-147s66-147 147-147v-98c-81 0-147-66-147-147s66-147 147-147v-98c-81 0-147-66-147-147 0-82 66-148 147-148v-98c-81 0-147-66-147-147s66-147 147-147v-98c-81 0-147-66-147-147s66-147 147-147v-98c-81 0-147-66-147-147 0-82 66-148 147-148v-98c-81 0-147-65-147-147 0-81 66-147 147-147v-98c-81 0-147-66-147-147h-98c0 81-66 147-147 147s-147-66-147-147h-98c0 81-66 147-147 147-82 0-147-66-147-147h-99c0 81-65 147-147 147-81 0-146-66-146-147h-99c0 81-66 147-147 147s-147-66-147-147h-98c0 81-66 147-147 147s-147-66-147-147h-98c0 81-66 147-147 147s-147-66-147-147z"/><path fill="url(#id1)" d="m2118 1757-218 1753h438l217-1750 433 1-218 1749h439l418-3381c-24 18-54 28-86 28-81 0-147-66-147-147h-98c0 68-47 126-110 142l-145 1176h-433l145-1171c-79-2-143-67-143-147h-100c0 81-66 147-147 147-16 0-32-3-47-8l-146 1178-2110-2c-16 6-33 9-50 9v98c24 0 46 6 66 16 48 24 81 74 81 131 0 59-35 110-85 134-19 8-40 13-62 13v32c701 0 1406-1 2108-1m490-429h433m1102-208c355 5 388 279 370 440-18 160-163 455-531 421-350-32-342-445-259-607 83-163 202-231 420-254"/><path d="m3799 4122-296 1 17-143 296 1 38-303h143l-37 303h143l37-303h144l-93 753h-144l38-308h-143l-37 308h-145zm106 309h-145zm286 0h-144zM4296 4685h142l55-435h-144zM4465 3910c118 2 130 94 124 147s-55 152-177 140c-117-10-114-148-87-202 28-54 68-77 140-85" class="fil4"/><path fill-rule="nonzero" d="M944 3301q10.5-6 30-6h232c7 0 12 2 16 7 4 4 5 10 4 17l-165 1342c-1 7-4 12-9 17-4 4-10 7-17 7H811c-15 0-22-8-22-24l135-1088c0-3-1-5-4-8-2-3-5-3-8-2l-196 53-8 2c-12 0-17-7-14-21l14-171c2-12 10-21 22-28z"/></g></svg>