<svg xmlns="http://www.w3.org/2000/svg" xml:space="preserve" width="708" height="1024" fill-rule="evenodd" clip-rule="evenodd" image-rendering="optimizeQuality" shape-rendering="geometricPrecision" text-rendering="geometricPrecision" viewBox="0 0 7080 10241"><defs><style>.fil0{fill:#fff;fill-rule:nonzero}</style></defs><g id="Слой_x0020_1"><path id="digit-4" d="M3747 4038c9 0 17 3 24 10 7 6 10 14 10 24v287c0 10-3 18-10 24-7 7-15 10-24 10h-122q-15 0-15 15v463c0 10-3 18-10 24-6 7-14 10-24 10h-333c-9 0-17-3-24-10-6-6-10-14-10-24v-463c0-10-5-15-14-15h-873c-10 0-18-3-24-10-7-6-10-14-10-24v-227c0-12 2-26 8-43l512-1149c8-17 21-26 40-26h356c13 0 22 3 27 10 4 7 4 17-2 30l-475 1067c-2 4-2 7 0 11q3 6 9 6h432c9 0 14-5 14-14v-353c0-10 4-18 10-24 7-7 15-10 24-10h333c10 0 18 3 24 10 7 6 10 14 10 24v353c0 9 5 14 15 14z" class="fil0"/><path id="digit-0" d="M1245 2537c-209 0-374-59-495-175-121-117-182-276-182-477v-751c0-197 61-354 182-469q181.5-174 495-174c209 0 374 58 496 174 123 115 184 272 184 469v751c0 201-61 360-184 477-122 116-287 175-496 175m0-345c85 0 153-26 203-78 51-52 76-122 76-209v-782c0-87-25-157-76-209-50-52-118-79-203-79-83 0-150 27-201 79-50 52-75 122-75 209v782c0 87 25 157 75 209q76.5 78 201 78" class="fil0"/><path id="digit-2" d="M4712 2144c-4 4-5 8-3 11 2 4 5 6 11 6h771c10 0 18 3 24 10 7 7 10 15 10 24v276c0 10-3 18-10 24-6 7-14 10-24 10H4211c-10 0-18-3-24-10-7-6-10-14-10-24v-262c0-17 5-31 17-42 93-91 188-190 284-298 97-107 158-174 182-200 53-63 108-122 163-179 172-192 258-334 258-427 0-66-23-121-71-164-47-42-109-64-185-64-75 0-137 22-185 64-47 43-71 100-71 170v71c0 9-3 17-10 24-6 7-14 10-24 10h-335c-10 0-18-3-25-10-6-7-10-15-10-24v-134c6-102 38-193 97-272 59-78 137-138 235-180 97-42 207-63 328-63 135 0 252 25 352 76 99 50 176 118 230 203q81 127.5 81 285c0 79-20 161-60 244-39 84-99 174-179 270-59 74-122 147-190 219-69 72-170 177-305 313z" class="fil0"/><path id="digit-5" d="M5693 3998c29 93 43 183 43 270 0 97-15 184-46 262-43 121-120 218-230 289s-239 106-387 106c-144 0-271-34-380-103-109-70-186-164-231-284-19-49-34-101-43-156v-6c0-21 11-31 34-31h344c19 0 32 10 37 31 2 12 5 21 9 29 4 7 6 14 8 20 19 49 48 87 86 113 38 27 82 40 133 40 53 0 100-14 140-42 40-29 69-69 88-120 19-38 28-87 28-148 0-55-8-104-25-148-14-49-40-87-80-113-40-27-86-40-139-40s-103 12-148 37c-46 24-76 57-91 96-6 19-18 29-37 29h-350c-10 0-18-3-24-10-7-7-10-15-10-24V2948c0-9 3-17 10-24 6-7 14-10 24-10h1175c9 0 17 3 24 10s10 15 10 24v276c0 10-3 18-10 24-7 7-15 10-24 10h-794c-9 0-14 5-14 15l-3 421c0 13 6 16 17 8 85-55 184-82 296-82 133 0 249 33 348 101 100 67 171 159 212 277" class="fil0"/><path id="digit-3" d="M1951 3955c38 88 57 188 57 302 0 102-17 197-51 284-46 122-122 217-229 285s-234 102-380 102c-144 0-271-36-380-108s-187-170-234-293c-27-74-42-154-46-239 0-23 12-34 34-34h336c23 0 34 11 34 34 8 63 18 109 31 140 17 49 45 87 84 115 39 27 85 41 138 41 107 0 180-46 219-139 27-57 40-124 40-200 0-89-14-162-43-219-43-89-116-133-219-133-20 0-42 6-65 18-23 13-50 30-82 53-8 6-16 8-23 8-12 0-20-5-26-17l-168-236c-3-5-5-12-5-20 0-11 3-21 11-28l452-396c4-3 6-7 5-11s-5-6-10-6H762c-9 0-17-3-24-10-7-6-10-14-10-24v-276c0-9 3-17 10-24s15-10 24-10h1186c10 0 18 3 25 10 6 7 10 15 10 24v313c0 15-7 30-20 43l-373 341c-4 4-5 8-4 12 1 3 5 5 12 5 165 33 283 130 353 293" class="fil0"/><path id="digit-1" d="M2856 523c10-6 24-9 43-9h344c10 0 18 3 24 10 7 7 10 15 10 24v1923c0 10-3 18-10 24-6 7-14 10-24 10h-333c-9 0-17-3-24-10-6-6-10-14-10-24V912c0-4-2-7-5-11q-6-6-12-3l-281 77-12 3c-17 0-25-11-25-32l-9-244c0-19 9-32 26-40z" class="fil0"/><path id="digit-9" d="M6253 5667q48 117 48 279v856c0 103-26 193-79 272s-128 140-225 182c-97 43-208 64-333 64-123 0-232-21-327-64-95-42-169-102-222-179s-80-165-80-266v-80c0-9 4-17 10-24 7-6 15-10 25-10h332c10 0 18 4 25 10 6 7 10 15 10 24v26c0 63 21 115 64 156 42 42 97 63 163 63 70 0 127-21 171-64 43-43 65-97 65-164v-264c0-6-2-10-6-11-3-2-7-1-11 2-78 67-180 100-307 100q-171 0-306-78c-90-52-161-128-212-226-47-90-71-199-71-328 0-111 19-210 57-295 47-112 124-201 229-265s229-97 371-97c144 0 270 34 377 101 107 68 185 161 232 280m-609 572c99 0 170-39 214-116 28-50 42-113 42-191 0-63-12-120-37-173q-63-126-216-126-148.5 0-216 126c-29 53-43 112-43 179 0 72 16 134 49 187q70.5 114 207 114" class="fil0"/><path id="digit-7" d="M2060 7297c-29 0-38-13-29-39l617-1591c4-11 0-17-11-17h-532c-9 0-14 5-14 15v130c0 10-3 18-10 25-7 6-15 10-24 10h-259c-10 0-18-4-24-10-7-7-10-15-10-25l3-455c0-9 3-17 10-24 6-6 14-10 24-10h1243c9 0 17 4 24 10 7 7 10 15 10 24v288q0 16.5-9 42l-614 1602c-6 17-19 25-40 25z" class="fil0"/><path id="digit-6" d="M1625 6333c46 85 68 195 68 327 0 110-18 209-54 296-49 112-126 200-230 265-104 64-228 96-370 96-146 0-272-33-378-101-106-67-183-160-231-280q-51-124.5-51-279v-856c0-102 27-193 81-271 54-79 130-140 226-183 97-42 208-64 333-64 123 0 232 22 327 64 95 43 169 103 221 180 52 76 78 165 78 266v79c0 10-3 18-10 24-7 7-15 10-24 10h-333c-9 0-18-3-24-10-7-6-10-14-10-24v-25c0-63-21-115-63-157-41-41-95-62-162-62-70 0-127 21-172 64-45 42-67 97-67 163v268c0 5 2 9 6 10s7-1 11-5c78-66 181-99 310-99q171 0 306 78c90 52 161 128 212 226m-375 512c28-49 42-109 42-179 0-76-15-138-45-188-48-76-117-114-208-114q-153 0-213 117c-29 49-43 113-43 191 0 68 12 126 37 173 42 84 114 125 216 125 99 0 170-41 214-125" class="fil0"/><path id="digit-8" d="M4517 6421c43 88 65 185 65 293 0 114-24 212-71 293-49 97-125 173-226 229q-153 84-363 84c-133 0-252-27-358-81s-186-132-239-235c-46-89-69-186-69-293 0-104 22-202 66-293 32-66 80-120 142-162 8-5 8-12 0-20-45-34-84-79-116-136-44-76-66-161-66-256q0-202.5 114-342c55-73 128-131 220-172 92-40 194-61 306-61 116 0 218 21 307 63s162 98 217 170c75 99 113 213 113 342 0 98-24 187-74 264-32 50-71 91-116 126-8 7-8 14 0 19 62 40 112 96 148 168m-808-682c-19 38-29 77-29 119 0 55 13 104 37 148 44 68 111 102 202 102s161-34 208-102c25-42 37-92 37-151 0-41-10-81-29-119-18-38-47-68-85-90s-82-33-134-33q-67.5 0-123 33t-84 93m415 1137c36-51 54-117 54-199 0-70-13-129-40-176q-61.5-120-219-120-147 0-210 117c-29 48-43 109-43 185 0 74 16 136 48 185 44 72 113 108 208 108 91 0 158-33 202-100" class="fil0"/></g></svg>