<?xml version="1.0" encoding="UTF-8"?>
<!DOCTYPE svg PUBLIC "-//W3C//DTD SVG 1.1//EN" "http://www.w3.org/Graphics/SVG/1.1/DTD/svg11.dtd">
<!-- Creator: CorelDRAW X8 -->
<svg xmlns="http://www.w3.org/2000/svg" xml:space="preserve" width="708px" height="1024px" version="1.1" style="shape-rendering:geometricPrecision; text-rendering:geometricPrecision; image-rendering:optimizeQuality; fill-rule:evenodd; clip-rule:evenodd"
viewBox="0 0 7080 10241"
 xmlns:xlink="http://www.w3.org/1999/xlink">
 <defs>
  <style type="text/css">
   <![CDATA[
    .fil1 {fill:white}
    .fil0 {fill:#008AED}
    .fil3 {fill:#022561}
    .fil2 {fill:#022561;fill-rule:nonzero}
   ]]>
  </style>
 </defs>
 <g id="Слой_x0020_1">
  <metadata id="CorelCorpID_0Corel-Layer"/>
  <path class="fil0" d="M325 63l195 0c0,161 131,292 292,292 161,0 291,-131 291,-292l196 0c0,161 130,292 292,292 161,0 291,-131 291,-292l196 0c0,161 130,292 291,292 161,0 292,-131 292,-292l195 0c0,161 131,292 292,292 161,0 292,-131 292,-292l195 0c0,161 131,292 292,292 161,0 292,-131 292,-292l195 0c0,161 131,292 292,292 161,0 291,-131 291,-292l196 0c0,161 130,292 291,292 162,0 292,-131 292,-292l196 0c0,161 130,292 291,292 161,0 292,-131 292,-292l195 0c0,161 131,292 292,292l5 0 0 190c-161,0 -292,131 -292,292 0,161 131,292 292,292l0 195c-161,0 -292,131 -292,292 0,161 131,292 292,292l0 195c-161,0 -292,130 -292,292 0,161 131,291 292,291l0 196c-161,0 -292,130 -292,291 0,162 131,292 292,292l0 195c-161,0 -292,131 -292,292 0,161 131,292 292,292l0 195c-161,0 -292,131 -292,292 0,161 131,292 292,292l0 195c-161,0 -292,131 -292,292 0,161 131,292 292,292l0 195c-161,0 -292,130 -292,292 0,161 131,291 292,291l0 196c-161,0 -292,130 -292,291 0,162 131,292 292,292l0 195c-161,0 -292,131 -292,292 0,161 131,292 292,292l0 195c-161,0 -292,131 -292,292 0,161 131,292 292,292l0 195c-161,0 -292,131 -292,292 0,161 131,292 292,292l0 190 -5 0c-161,0 -292,130 -292,292l-195 0c0,-162 -131,-292 -292,-292 -161,0 -292,130 -292,292l-195 0c0,-162 -130,-292 -292,-292 -161,0 -291,130 -291,292l-196 0c0,-162 -130,-292 -291,-292 -162,0 -292,130 -292,292l-195 0c0,-162 -131,-292 -292,-292 -161,0 -292,130 -292,292l-195 0c0,-162 -131,-292 -292,-292 -161,0 -292,130 -292,292l-195 0c0,-162 -131,-292 -292,-292 -161,0 -292,130 -292,292l-195 0c0,-162 -130,-292 -292,-292 -161,0 -291,130 -291,292l-196 0c0,-162 -130,-292 -291,-292 -161,0 -292,130 -292,292l-195 0c0,-162 -131,-292 -292,-292l0 -195c161,0 292,-130 292,-292 0,-161 -131,-291 -292,-291l0 -195c161,0 292,-130 292,-292 0,-161 -131,-291 -292,-291l0 -195c161,0 292,-130 292,-292 0,-161 -131,-291 -292,-291l0 -195c161,0 292,-130 292,-292 0,-161 -131,-291 -292,-291l0 -195c161,0 292,-130 292,-292 0,-161 -131,-291 -292,-291l0 -195c161,0 292,-130 292,-292 0,-161 -131,-291 -292,-291l0 -195c161,0 292,-131 292,-292 0,-161 -131,-291 -292,-291l0 -195c161,0 292,-131 292,-292 0,-161 -131,-291 -292,-291l0 -195c161,0 292,-131 292,-292 0,-161 -131,-291 -292,-291l0 -195c161,0 292,-131 292,-292 0,-161 -131,-291 -292,-291l0 -195c161,0 292,-131 292,-292 0,-161 -131,-292 -292,-292l0 -194c161,0 292,-131 292,-292 0,-161 -131,-292 -292,-292l0 -194c161,0 292,-131 292,-292z"/>
  <path class="fil1" d="M50 5023c153,-9 275,-136 275,-292 0,-74 -28,-142 -74,-194l2 -5 316 -762c7,-19 6,-38 -5,-54 -11,-16 -28,-25 -48,-25l-356 0c-38,-19 -81,-29 -127,-29l0 -195c161,0 292,-131 292,-292 0,-161 -131,-291 -292,-291l0 -71 3 0 891 0c24,0 44,-13 53,-35l1102 -2662c25,136 144,239 287,239 161,0 292,-131 292,-292l195 0c0,90 41,171 105,224l-1013 2447c-8,18 -6,37 5,54 11,16 28,25 48,25l826 0c24,0 44,-13 53,-35l1005 -2426c13,2 28,3 42,3 161,0 292,-131 292,-292l195 0c0,161 131,292 292,292 52,0 101,-14 143,-37l-4 10 -2912 7029 -950 0 1486 -3587c7,-19 6,-38 -5,-54 -2,-2 -3,-4 -5,-6 -10,-12 -26,-19 -43,-19l-826 0c-24,0 -44,13 -53,35l-1298 3133c-53,-53 -126,-85 -206,-85l0 -195c161,0 292,-130 292,-292 0,-161 -131,-291 -292,-291l0 -195c161,0 292,-130 292,-292 0,-161 -131,-291 -292,-291l0 -154 17 -41zm4838 -776c-252,0 -432,-80 -541,-239 -109,-160 -127,-365 -54,-617 95,-328 278,-599 550,-813 273,-214 564,-321 875,-321 260,0 446,77 556,233 110,155 128,363 52,623 -92,320 -280,588 -561,807 -282,218 -574,327 -877,327z"/>
  <path id="countYear" class="fil2" d="M3468 6554c10,-8 27,-12 48,-12l388 0c10,0 19,5 27,14 7,10 11,22 11,36l0 2849c0,14 -4,26 -11,36 -8,10 -17,15 -27,15l-375 0c-11,0 -20,-5 -28,-15 -7,-10 -11,-22 -11,-36l0 -2309c0,-6 -2,-12 -6,-17 -4,-6 -9,-7 -13,-4l-317 113 -13 5c-19,0 -29,-16 -29,-47l-10 -362c0,-28 10,-48 29,-59l337 -207z"/>
  <g id="hi">
   <path class="fil2" d="M5695 9494l200 0c17,0 31,-10 38,-25l270 -652c4,-15 -1,-22 -14,-22l-207 0c-6,0 -11,2 -17,6 -5,5 -10,10 -13,16l-270 656c-2,5 -2,10 1,14 3,4 7,7 12,7z"/>
   <path class="fil2" d="M6150 8634c-64,0 -111,-21 -139,-62 -27,-40 -32,-93 -13,-158 24,-83 71,-153 141,-207 69,-55 144,-83 223,-83 67,0 114,20 143,60 28,40 32,93 13,160 -24,81 -72,150 -144,206 -72,56 -147,84 -224,84z"/>
   <path class="fil3" d="M5515 9133l-194 0c-5,0 -10,-3 -12,-7 -3,-4 -4,-9 -2,-14l251 -606c2,-3 1,-7 -1,-10 -2,-3 -5,-5 -9,-5l-219 0c-5,0 -9,3 -10,7l-253 610c-6,15 -20,25 -37,25l-194 0c-5,0 -10,-3 -12,-7 -3,-4 -4,-9 -2,-14l251 -606c2,-3 1,-7 -1,-10 -2,-3 -5,-5 -9,-5l-448 0c-5,0 -9,-2 -12,-6 -3,-4 -3,-9 -1,-14l74 -179c6,-16 21,-25 37,-25l452 0c5,0 9,-3 10,-7l160 -385c6,-15 20,-25 37,-25l194 0c5,0 10,2 12,7 3,4 4,9 2,13l-158 382c-2,3 -1,7 1,10 2,3 5,5 9,5l219 0c5,0 9,-3 10,-7l160 -385c6,-15 20,-25 37,-25l194 0c5,0 10,2 12,7 3,4 4,9 2,13l-513 1238c-6,15 -20,25 -37,25z"/>
  </g>
 </g>
</svg>
